<svg xmlns="http://www.w3.org/2000/svg" width="24" height="24" fill="none" id="reload"><path fill="#000" d="M7.5 18.5C8.857 19.561 10.143 20 12 20a8.001 8.001 0 0 0 7.938-7h1.194a1 1 0 0 0 .831-1.555l-2.131-3.197a1 1 0 0 0-1.664 0l-2.131 3.197A1 1 0 0 0 16.869 13h1.048a6.002 6.002 0 0 1-8.918 4.197L7.5 18.5zm7.501-11.697A6.002 6.002 0 0 0 6.083 11H7.13a1 1 0 0 1 .833 1.555l-2.132 3.197a1 1 0 0 1-1.664 0l-2.132-3.197A1 1 0 0 1 2.87 11h1.193A8.001 8.001 0 0 1 12 4c1.857 0 3.143.439 4.5 1.5l-1.499 1.303z"></path></svg>